# xmcd
#
# Track frame offsets:
#	150
#	9800
#	22065
#	33200
#	45452
#	57222
#	67570
#	79702
#	91467
#	103232
#
# Disc length: 1524 seconds
#
# Revision: 4
# Processed by: cddbd v1.5.2PL0 Copyright (c) Steve Scherf et al.
# Submitted via: EZCDAudioConverter 6.0.7.1
#
DISCID=6a05f20a
DTITLE=George Jones - The Best Of George Jones
DYEAR=1995
DGENRE=Country
TTITLE0=The Race Is On
TTITLE1=You Comb Her Hair
TTITLE2=Not What I Had In Mind
TTITLE3=A Girl I Used To Know
TTITLE4=She Thinks I Still Care
TTITLE5=Your Heart Turned Left (And I Was On The Right)
TTITLE6=We Must Have Been Out Of Our Minds
TTITLE7=Where Does A Little Tear Come From
TTITLE8=Least Of All
TTITLE9=My Tears Are Overdue
EXTD=
EXTT0=
EXTT1=
EXTT2=
EXTT3=
EXTT4=
EXTT5=
EXTT6=
EXTT7=
EXTT8=
EXTT9=
PLAYORDER=
